<mxfile host="Electron" modified="2023-10-12T20:42:30.512Z" agent="Mozilla/5.0 (X11; Linux x86_64) AppleWebKit/537.36 (KHTML, like Gecko) draw.io/21.7.5 Chrome/116.0.5845.188 Electron/26.2.1 Safari/537.36" etag="YgZCZ0gEZg7qc7DCDO7Y" version="21.7.5" type="device">
  <diagram name="Page-1" id="JFM9gfsfHM25LV4jLNwM">
    <mxGraphModel dx="1102" dy="781" grid="1" gridSize="10" guides="1" tooltips="1" connect="1" arrows="1" fold="1" page="1" pageScale="1" pageWidth="827" pageHeight="1169" math="0" shadow="0">
      <root>
        <mxCell id="0" />
        <mxCell id="1" parent="0" />
        <mxCell id="6FkA6f-y6DHkgn2e3UDn-8" value="" style="rounded=0;whiteSpace=wrap;html=1;aspect=fixed;fillColor=#dae8fc;strokeColor=#6c8ebf;gradientColor=#7ea6e0;" vertex="1" parent="1">
          <mxGeometry x="40" y="40" width="320" height="568.88" as="geometry" />
        </mxCell>
        <mxCell id="6FkA6f-y6DHkgn2e3UDn-2" value="&lt;font color=&quot;#999999&quot;&gt;Search&lt;/font&gt;" style="rounded=1;whiteSpace=wrap;html=1;glass=0;shadow=0;" vertex="1" parent="1">
          <mxGeometry x="85" y="50" width="265" height="30" as="geometry" />
        </mxCell>
        <mxCell id="6FkA6f-y6DHkgn2e3UDn-5" value="" style="rounded=1;whiteSpace=wrap;html=1;" vertex="1" parent="1">
          <mxGeometry x="50" y="50" width="29" height="30" as="geometry" />
        </mxCell>
        <mxCell id="6FkA6f-y6DHkgn2e3UDn-9" value="" style="html=1;verticalLabelPosition=bottom;align=center;labelBackgroundColor=#ffffff;verticalAlign=top;strokeWidth=2;strokeColor=#0080F0;shadow=0;dashed=0;shape=mxgraph.ios7.icons.looking_glass;" vertex="1" parent="1">
          <mxGeometry x="320" y="55" width="20" height="20" as="geometry" />
        </mxCell>
        <mxCell id="6FkA6f-y6DHkgn2e3UDn-11" value="" style="verticalLabelPosition=bottom;shadow=0;dashed=0;align=center;html=1;verticalAlign=top;shape=mxgraph.electrical.transmission.3_line_bus;" vertex="1" parent="1">
          <mxGeometry x="54.5" y="57.5" width="20" height="15" as="geometry" />
        </mxCell>
        <mxCell id="6FkA6f-y6DHkgn2e3UDn-12" value="" style="shape=actor;whiteSpace=wrap;html=1;" vertex="1" parent="1">
          <mxGeometry x="180" y="380" width="40" height="60" as="geometry" />
        </mxCell>
        <mxCell id="6FkA6f-y6DHkgn2e3UDn-13" value="" style="rounded=0;whiteSpace=wrap;html=1;strokeColor=#6c8ebf;fillColor=#dae8fc;gradientColor=#7ea6e0;" vertex="1" parent="1">
          <mxGeometry x="370" y="40" width="500" height="310" as="geometry" />
        </mxCell>
        <mxCell id="6FkA6f-y6DHkgn2e3UDn-14" value="&lt;font color=&quot;#999999&quot;&gt;Search&lt;/font&gt;" style="rounded=1;whiteSpace=wrap;html=1;glass=0;shadow=0;" vertex="1" parent="1">
          <mxGeometry x="487.5" y="50" width="265" height="30" as="geometry" />
        </mxCell>
        <mxCell id="6FkA6f-y6DHkgn2e3UDn-15" value="" style="rounded=1;whiteSpace=wrap;html=1;" vertex="1" parent="1">
          <mxGeometry x="380" y="50" width="29" height="30" as="geometry" />
        </mxCell>
        <mxCell id="6FkA6f-y6DHkgn2e3UDn-16" value="" style="html=1;verticalLabelPosition=bottom;align=center;labelBackgroundColor=#ffffff;verticalAlign=top;strokeWidth=2;strokeColor=#0080F0;shadow=0;dashed=0;shape=mxgraph.ios7.icons.looking_glass;" vertex="1" parent="1">
          <mxGeometry x="725" y="55" width="20" height="20" as="geometry" />
        </mxCell>
        <mxCell id="6FkA6f-y6DHkgn2e3UDn-17" value="" style="verticalLabelPosition=bottom;shadow=0;dashed=0;align=center;html=1;verticalAlign=top;shape=mxgraph.electrical.transmission.3_line_bus;" vertex="1" parent="1">
          <mxGeometry x="384.5" y="57.5" width="20" height="15" as="geometry" />
        </mxCell>
        <mxCell id="6FkA6f-y6DHkgn2e3UDn-18" value="" style="shape=actor;whiteSpace=wrap;html=1;" vertex="1" parent="1">
          <mxGeometry x="600" y="220" width="40" height="60" as="geometry" />
        </mxCell>
        <mxCell id="6FkA6f-y6DHkgn2e3UDn-19" value="" style="rounded=0;whiteSpace=wrap;html=1;fillColor=#dae8fc;gradientColor=#7ea6e0;strokeColor=#6c8ebf;" vertex="1" parent="1">
          <mxGeometry x="370" y="360" width="500" height="250" as="geometry" />
        </mxCell>
        <mxCell id="6FkA6f-y6DHkgn2e3UDn-24" value="&lt;font color=&quot;#999999&quot;&gt;Search&lt;/font&gt;" style="rounded=1;whiteSpace=wrap;html=1;glass=0;shadow=0;" vertex="1" parent="1">
          <mxGeometry x="487.5" y="370" width="265" height="30" as="geometry" />
        </mxCell>
        <mxCell id="6FkA6f-y6DHkgn2e3UDn-25" value="" style="html=1;verticalLabelPosition=bottom;align=center;labelBackgroundColor=#ffffff;verticalAlign=top;strokeWidth=2;strokeColor=#0080F0;shadow=0;dashed=0;shape=mxgraph.ios7.icons.looking_glass;" vertex="1" parent="1">
          <mxGeometry x="725" y="375" width="20" height="20" as="geometry" />
        </mxCell>
        <mxCell id="6FkA6f-y6DHkgn2e3UDn-26" value="" style="shape=actor;whiteSpace=wrap;html=1;" vertex="1" parent="1">
          <mxGeometry x="600" y="510" width="40" height="60" as="geometry" />
        </mxCell>
        <mxCell id="6FkA6f-y6DHkgn2e3UDn-21" value="" style="rounded=0;whiteSpace=wrap;html=1;" vertex="1" parent="1">
          <mxGeometry x="380" y="370" width="285" height="230" as="geometry" />
        </mxCell>
        <mxCell id="6FkA6f-y6DHkgn2e3UDn-27" value="" style="rounded=0;whiteSpace=wrap;html=1;" vertex="1" parent="1">
          <mxGeometry x="670" y="370" width="190" height="230" as="geometry" />
        </mxCell>
        <mxCell id="6FkA6f-y6DHkgn2e3UDn-28" value="Goto Building" style="rounded=1;whiteSpace=wrap;html=1;" vertex="1" parent="1">
          <mxGeometry x="692.5" y="560" width="140" height="30" as="geometry" />
        </mxCell>
        <mxCell id="6FkA6f-y6DHkgn2e3UDn-29" value="&lt;h1&gt;&lt;font style=&quot;font-size: 21px;&quot;&gt;Building 1&lt;/font&gt;&lt;/h1&gt;&lt;p&gt;Lorem ipsum dolor sit amet, consectetur adipisicing elit, sed do eiusmod tempor incididunt ut labore et dolore magna aliqua.&lt;/p&gt;" style="text;html=1;strokeColor=none;fillColor=none;spacing=5;spacingTop=-20;whiteSpace=wrap;overflow=hidden;rounded=0;" vertex="1" parent="1">
          <mxGeometry x="672.5" y="375" width="185" height="170" as="geometry" />
        </mxCell>
        <mxCell id="6FkA6f-y6DHkgn2e3UDn-30" value="&lt;font color=&quot;#999999&quot;&gt;Search&lt;/font&gt;" style="rounded=1;whiteSpace=wrap;html=1;glass=0;shadow=0;" vertex="1" parent="1">
          <mxGeometry x="420" y="375" width="235" height="30" as="geometry" />
        </mxCell>
        <mxCell id="6FkA6f-y6DHkgn2e3UDn-31" value="" style="rounded=1;whiteSpace=wrap;html=1;" vertex="1" parent="1">
          <mxGeometry x="389.5" y="375" width="29" height="30" as="geometry" />
        </mxCell>
        <mxCell id="6FkA6f-y6DHkgn2e3UDn-32" value="" style="html=1;verticalLabelPosition=bottom;align=center;labelBackgroundColor=#ffffff;verticalAlign=top;strokeWidth=2;strokeColor=#0080F0;shadow=0;dashed=0;shape=mxgraph.ios7.icons.looking_glass;" vertex="1" parent="1">
          <mxGeometry x="625" y="377.5" width="20" height="20" as="geometry" />
        </mxCell>
        <mxCell id="6FkA6f-y6DHkgn2e3UDn-33" value="" style="verticalLabelPosition=bottom;shadow=0;dashed=0;align=center;html=1;verticalAlign=top;shape=mxgraph.electrical.transmission.3_line_bus;" vertex="1" parent="1">
          <mxGeometry x="394" y="382.5" width="20" height="15" as="geometry" />
        </mxCell>
        <mxCell id="6FkA6f-y6DHkgn2e3UDn-35" value="Building 0" style="rounded=0;whiteSpace=wrap;html=1;" vertex="1" parent="1">
          <mxGeometry x="390" y="410" width="265" height="30" as="geometry" />
        </mxCell>
        <mxCell id="6FkA6f-y6DHkgn2e3UDn-36" value="Building 1" style="rounded=0;whiteSpace=wrap;html=1;strokeWidth=3;" vertex="1" parent="1">
          <mxGeometry x="390" y="450" width="265" height="30" as="geometry" />
        </mxCell>
        <mxCell id="6FkA6f-y6DHkgn2e3UDn-37" value="Building 2" style="rounded=0;whiteSpace=wrap;html=1;" vertex="1" parent="1">
          <mxGeometry x="390" y="490" width="265" height="30" as="geometry" />
        </mxCell>
        <mxCell id="6FkA6f-y6DHkgn2e3UDn-38" value="Building 3" style="rounded=0;whiteSpace=wrap;html=1;" vertex="1" parent="1">
          <mxGeometry x="390" y="530" width="265" height="30" as="geometry" />
        </mxCell>
        <mxCell id="6FkA6f-y6DHkgn2e3UDn-39" value="Building 4" style="rounded=0;whiteSpace=wrap;html=1;" vertex="1" parent="1">
          <mxGeometry x="390" y="570" width="264.5" height="30" as="geometry" />
        </mxCell>
      </root>
    </mxGraphModel>
  </diagram>
</mxfile>
